<?xml version="1.0" encoding="UTF-8" standalone="no"?>
<!DOCTYPE svg PUBLIC "-//W3C//DTD SVG 1.1//EN"
 "http://www.w3.org/Graphics/SVG/1.1/DTD/svg11.dtd">
<!-- Generated by graphviz version 5.0.1 (20220820.1526)
 -->
<!-- Title: G Pages: 1 -->
<svg width="601pt" height="3777pt"
 viewBox="0.00 0.00 601.00 3776.50" xmlns="http://www.w3.org/2000/svg" xmlns:xlink="http://www.w3.org/1999/xlink">
<g id="graph0" class="graph" transform="scale(1 1) rotate(0) translate(36 3740.5)">
<title>G</title>
<polygon fill="#f7f7f7" stroke="none" points="-36,36 -36,-3740.5 565,-3740.5 565,36 -36,36"/>
<!-- appmodelsemploidutemp -->
<g id="node1" class="node">
<title>appmodelsemploidutemp</title>
<polygon fill="none" stroke="black" points="173,-684.5 9,-684.5 9,-314.5 173,-314.5 173,-684.5"/>
<polygon fill="#d3d3d3" stroke="none" points="9,-647.5 9,-684.5 173,-684.5 173,-647.5 9,-647.5"/>
<polygon fill="none" stroke="black" points="9,-647.5 9,-684.5 173,-684.5 173,-647.5 9,-647.5"/>
<text text-anchor="start" x="39.5" y="-662.3" font-family="Helvetica Neue" font-size="14.00" fill="#333333">_emploiDuTemp</text>
<polygon fill="#ffffff" stroke="none" points="9,-610.5 9,-647.5 173,-647.5 173,-610.5 9,-610.5"/>
<polygon fill="none" stroke="black" points="9,-610.5 9,-647.5 173,-647.5 173,-610.5 9,-610.5"/>
<text text-anchor="start" x="20" y="-625.3" font-family="Helvetica Neue" font-size="14.00" fill="#333333">id (bigint)</text>
<polygon fill="#ffffff" stroke="none" points="9,-573.5 9,-610.5 173,-610.5 173,-573.5 9,-573.5"/>
<polygon fill="none" stroke="black" points="9,-573.5 9,-610.5 173,-610.5 173,-573.5 9,-573.5"/>
<text text-anchor="start" x="20" y="-588.3" font-family="Helvetica Neue" font-size="14.00" fill="#333333">jour (string)</text>
<polygon fill="#ffffff" stroke="none" points="9,-536.5 9,-573.5 173,-573.5 173,-536.5 9,-536.5"/>
<polygon fill="none" stroke="black" points="9,-536.5 9,-573.5 173,-573.5 173,-536.5 9,-536.5"/>
<text text-anchor="start" x="20" y="-551.3" font-family="Helvetica Neue" font-size="14.00" fill="#333333">date_semaine (date)</text>
<polygon fill="#ffffff" stroke="none" points="9,-499.5 9,-536.5 173,-536.5 173,-499.5 9,-499.5"/>
<polygon fill="none" stroke="black" points="9,-499.5 9,-536.5 173,-536.5 173,-499.5 9,-499.5"/>
<text text-anchor="start" x="20" y="-514.3" font-family="Helvetica Neue" font-size="14.00" fill="#333333">_id_matiere (bigint)</text>
<polygon fill="#ffffff" stroke="none" points="9,-462.5 9,-499.5 173,-499.5 173,-462.5 9,-462.5"/>
<polygon fill="none" stroke="black" points="9,-462.5 9,-499.5 173,-499.5 173,-462.5 9,-462.5"/>
<text text-anchor="start" x="20" y="-477.3" font-family="Helvetica Neue" font-size="14.00" fill="#333333">_matricule (bigint)</text>
<polygon fill="#ffffff" stroke="none" points="9,-425.5 9,-462.5 173,-462.5 173,-425.5 9,-425.5"/>
<polygon fill="none" stroke="black" points="9,-425.5 9,-462.5 173,-462.5 173,-425.5 9,-425.5"/>
<text text-anchor="start" x="20" y="-440.3" font-family="Helvetica Neue" font-size="14.00" fill="#333333">_id_option (bigint)</text>
<polygon fill="#ffffff" stroke="none" points="9,-388.5 9,-425.5 173,-425.5 173,-388.5 9,-388.5"/>
<polygon fill="none" stroke="black" points="9,-388.5 9,-425.5 173,-425.5 173,-388.5 9,-388.5"/>
<text text-anchor="start" x="20" y="-403.3" font-family="Helvetica Neue" font-size="14.00" fill="#333333">plage_heure (string)</text>
<polygon fill="#ffffff" stroke="none" points="9,-351.5 9,-388.5 173,-388.5 173,-351.5 9,-351.5"/>
<polygon fill="none" stroke="black" points="9,-351.5 9,-388.5 173,-388.5 173,-351.5 9,-351.5"/>
<text text-anchor="start" x="20" y="-366.3" font-family="Helvetica Neue" font-size="14.00" fill="#333333">created_at (datetime)</text>
<polygon fill="#ffffff" stroke="none" points="9,-314.5 9,-351.5 173,-351.5 173,-314.5 9,-314.5"/>
<polygon fill="none" stroke="black" points="9,-314.5 9,-351.5 173,-351.5 173,-314.5 9,-314.5"/>
<text text-anchor="start" x="20" y="-329.3" font-family="Helvetica Neue" font-size="14.00" fill="#333333">updated_at (datetime)</text>
</g>
<!-- appmodelsuser -->
<g id="node2" class="node">
<title>appmodelsuser</title>
<polygon fill="none" stroke="black" points="529,-555 331,-555 331,0 529,0 529,-555"/>
<polygon fill="#d3d3d3" stroke="none" points="331,-517.5 331,-554.5 529,-554.5 529,-517.5 331,-517.5"/>
<polygon fill="none" stroke="black" points="331,-517.5 331,-554.5 529,-554.5 529,-517.5 331,-517.5"/>
<text text-anchor="start" x="416" y="-532.3" font-family="Helvetica Neue" font-size="14.00" fill="#333333">User</text>
<polygon fill="#ffffff" stroke="none" points="331,-480.5 331,-517.5 529,-517.5 529,-480.5 331,-480.5"/>
<polygon fill="none" stroke="black" points="331,-480.5 331,-517.5 529,-517.5 529,-480.5 331,-480.5"/>
<text text-anchor="start" x="342" y="-495.3" font-family="Helvetica Neue" font-size="14.00" fill="#333333">id (bigint)</text>
<polygon fill="#ffffff" stroke="none" points="331,-443.5 331,-480.5 529,-480.5 529,-443.5 331,-443.5"/>
<polygon fill="none" stroke="black" points="331,-443.5 331,-480.5 529,-480.5 529,-443.5 331,-443.5"/>
<text text-anchor="start" x="342" y="-458.3" font-family="Helvetica Neue" font-size="14.00" fill="#333333">matricule (bigint)</text>
<polygon fill="#ffffff" stroke="none" points="331,-406.5 331,-443.5 529,-443.5 529,-406.5 331,-406.5"/>
<polygon fill="none" stroke="black" points="331,-406.5 331,-443.5 529,-443.5 529,-406.5 331,-406.5"/>
<text text-anchor="start" x="342" y="-421.3" font-family="Helvetica Neue" font-size="14.00" fill="#333333">nom (string)</text>
<polygon fill="#ffffff" stroke="none" points="331,-369.5 331,-406.5 529,-406.5 529,-369.5 331,-369.5"/>
<polygon fill="none" stroke="black" points="331,-369.5 331,-406.5 529,-406.5 529,-369.5 331,-369.5"/>
<text text-anchor="start" x="342" y="-384.3" font-family="Helvetica Neue" font-size="14.00" fill="#333333">prenom (string)</text>
<polygon fill="#ffffff" stroke="none" points="331,-332.5 331,-369.5 529,-369.5 529,-332.5 331,-332.5"/>
<polygon fill="none" stroke="black" points="331,-332.5 331,-369.5 529,-369.5 529,-332.5 331,-332.5"/>
<text text-anchor="start" x="342" y="-347.3" font-family="Helvetica Neue" font-size="14.00" fill="#333333">profession (string)</text>
<polygon fill="#ffffff" stroke="none" points="331,-295.5 331,-332.5 529,-332.5 529,-295.5 331,-295.5"/>
<polygon fill="none" stroke="black" points="331,-295.5 331,-332.5 529,-332.5 529,-295.5 331,-295.5"/>
<text text-anchor="start" x="342" y="-310.3" font-family="Helvetica Neue" font-size="14.00" fill="#333333">telephone (string)</text>
<polygon fill="#ffffff" stroke="none" points="331,-258.5 331,-295.5 529,-295.5 529,-258.5 331,-258.5"/>
<polygon fill="none" stroke="black" points="331,-258.5 331,-295.5 529,-295.5 529,-258.5 331,-258.5"/>
<text text-anchor="start" x="342" y="-273.3" font-family="Helvetica Neue" font-size="14.00" fill="#333333">email (string)</text>
<polygon fill="#ffffff" stroke="none" points="331,-221.5 331,-258.5 529,-258.5 529,-221.5 331,-221.5"/>
<polygon fill="none" stroke="black" points="331,-221.5 331,-258.5 529,-258.5 529,-221.5 331,-221.5"/>
<text text-anchor="start" x="342" y="-236.3" font-family="Helvetica Neue" font-size="14.00" fill="#333333">email_verified_at (datetime)</text>
<polygon fill="#ffffff" stroke="none" points="331,-184.5 331,-221.5 529,-221.5 529,-184.5 331,-184.5"/>
<polygon fill="none" stroke="black" points="331,-184.5 331,-221.5 529,-221.5 529,-184.5 331,-184.5"/>
<text text-anchor="start" x="342" y="-199.3" font-family="Helvetica Neue" font-size="14.00" fill="#333333">password (string)</text>
<polygon fill="#ffffff" stroke="none" points="331,-147.5 331,-184.5 529,-184.5 529,-147.5 331,-147.5"/>
<polygon fill="none" stroke="black" points="331,-147.5 331,-184.5 529,-184.5 529,-147.5 331,-147.5"/>
<text text-anchor="start" x="342" y="-162.3" font-family="Helvetica Neue" font-size="14.00" fill="#333333">option (bigint)</text>
<polygon fill="#ffffff" stroke="none" points="331,-110.5 331,-147.5 529,-147.5 529,-110.5 331,-110.5"/>
<polygon fill="none" stroke="black" points="331,-110.5 331,-147.5 529,-147.5 529,-110.5 331,-110.5"/>
<text text-anchor="start" x="342" y="-125.3" font-family="Helvetica Neue" font-size="14.00" fill="#333333">status (integer)</text>
<polygon fill="#ffffff" stroke="none" points="331,-73.5 331,-110.5 529,-110.5 529,-73.5 331,-73.5"/>
<polygon fill="none" stroke="black" points="331,-73.5 331,-110.5 529,-110.5 529,-73.5 331,-73.5"/>
<text text-anchor="start" x="342" y="-88.3" font-family="Helvetica Neue" font-size="14.00" fill="#333333">remember_token (string)</text>
<polygon fill="#ffffff" stroke="none" points="331,-36.5 331,-73.5 529,-73.5 529,-36.5 331,-36.5"/>
<polygon fill="none" stroke="black" points="331,-36.5 331,-73.5 529,-73.5 529,-36.5 331,-36.5"/>
<text text-anchor="start" x="342" y="-51.3" font-family="Helvetica Neue" font-size="14.00" fill="#333333">created_at (datetime)</text>
<polygon fill="#ffffff" stroke="none" points="331,0.5 331,-36.5 529,-36.5 529,0.5 331,0.5"/>
<polygon fill="none" stroke="black" points="331,0.5 331,-36.5 529,-36.5 529,0.5 331,0.5"/>
<text text-anchor="start" x="342" y="-14.3" font-family="Helvetica Neue" font-size="14.00" fill="#333333">updated_at (datetime)</text>
</g>
<!-- appmodelsemploidutemp&#45;&gt;appmodelsuser -->
<g id="edge1" class="edge">
<title>appmodelsemploidutemp:prgrame_id&#45;&gt;appmodelsuser:id</title>
<path fill="none" stroke="#f77f00" stroke-width="1.8" d="M183.52,-499.5C240.43,-499.5 306.3,-499.5 325.49,-499.5"/>
<polygon fill="#f77f00" stroke="#f77f00" stroke-width="1.8" points="183.25,-499.5 173.25,-495 178.25,-499.5 173.25,-499.5 173.25,-499.5 173.25,-499.5 178.25,-499.5 173.25,-504 183.25,-499.5 183.25,-499.5"/>
<polygon fill="#f77f00" stroke="#f77f00" stroke-width="1.8" points="330,-494.5 330,-504.5 328,-504.5 328,-494.5 330,-494.5"/>
<polyline fill="none" stroke="#f77f00" stroke-width="1.8" points="331,-499.5 326,-499.5"/>
<text text-anchor="middle" x="256.5" y="-503.3" font-family="Helvetica Neue" font-size="14.00"> </text>
<text text-anchor="middle" x="222.01" y="-488.3" font-family="Helvetica Neue" font-size="14.00">BelongsTo</text>
<text text-anchor="middle" x="222.01" y="-473.3" font-family="Helvetica Neue" font-size="14.00">prgrame</text>
</g>
<!-- appmodelschat -->
<g id="node3" class="node">
<title>appmodelschat</title>
<polygon fill="none" stroke="black" points="182,-1052.5 0,-1052.5 0,-756.5 182,-756.5 182,-1052.5"/>
<polygon fill="#d3d3d3" stroke="none" points="0,-1015.5 0,-1052.5 182,-1052.5 182,-1015.5 0,-1015.5"/>
<polygon fill="none" stroke="black" points="0,-1015.5 0,-1052.5 182,-1052.5 182,-1015.5 0,-1015.5"/>
<text text-anchor="start" x="76.5" y="-1030.3" font-family="Helvetica Neue" font-size="14.00" fill="#333333">Chat</text>
<polygon fill="#ffffff" stroke="none" points="0,-978.5 0,-1015.5 182,-1015.5 182,-978.5 0,-978.5"/>
<polygon fill="none" stroke="black" points="0,-978.5 0,-1015.5 182,-1015.5 182,-978.5 0,-978.5"/>
<text text-anchor="start" x="11" y="-993.3" font-family="Helvetica Neue" font-size="14.00" fill="#333333">id (bigint)</text>
<polygon fill="#ffffff" stroke="none" points="0,-941.5 0,-978.5 182,-978.5 182,-941.5 0,-941.5"/>
<polygon fill="none" stroke="black" points="0,-941.5 0,-978.5 182,-978.5 182,-941.5 0,-941.5"/>
<text text-anchor="start" x="11" y="-956.3" font-family="Helvetica Neue" font-size="14.00" fill="#333333">message (text)</text>
<polygon fill="#ffffff" stroke="none" points="0,-904.5 0,-941.5 182,-941.5 182,-904.5 0,-904.5"/>
<polygon fill="none" stroke="black" points="0,-904.5 0,-941.5 182,-941.5 182,-904.5 0,-904.5"/>
<text text-anchor="start" x="11" y="-919.3" font-family="Helvetica Neue" font-size="14.00" fill="#333333">matricule_send (bigint)</text>
<polygon fill="#ffffff" stroke="none" points="0,-867.5 0,-904.5 182,-904.5 182,-867.5 0,-867.5"/>
<polygon fill="none" stroke="black" points="0,-867.5 0,-904.5 182,-904.5 182,-867.5 0,-867.5"/>
<text text-anchor="start" x="11" y="-882.3" font-family="Helvetica Neue" font-size="14.00" fill="#333333">matricule_receive (bigint)</text>
<polygon fill="#ffffff" stroke="none" points="0,-830.5 0,-867.5 182,-867.5 182,-830.5 0,-830.5"/>
<polygon fill="none" stroke="black" points="0,-830.5 0,-867.5 182,-867.5 182,-830.5 0,-830.5"/>
<text text-anchor="start" x="11" y="-845.3" font-family="Helvetica Neue" font-size="14.00" fill="#333333">etat_sms (integer)</text>
<polygon fill="#ffffff" stroke="none" points="0,-793.5 0,-830.5 182,-830.5 182,-793.5 0,-793.5"/>
<polygon fill="none" stroke="black" points="0,-793.5 0,-830.5 182,-830.5 182,-793.5 0,-793.5"/>
<text text-anchor="start" x="11" y="-808.3" font-family="Helvetica Neue" font-size="14.00" fill="#333333">created_at (datetime)</text>
<polygon fill="#ffffff" stroke="none" points="0,-756.5 0,-793.5 182,-793.5 182,-756.5 0,-756.5"/>
<polygon fill="none" stroke="black" points="0,-756.5 0,-793.5 182,-793.5 182,-756.5 0,-756.5"/>
<text text-anchor="start" x="11" y="-771.3" font-family="Helvetica Neue" font-size="14.00" fill="#333333">updated_at (datetime)</text>
</g>
<!-- appmodelscours -->
<g id="node4" class="node">
<title>appmodelscours</title>
<polygon fill="none" stroke="black" points="173,-1494.5 9,-1494.5 9,-1124.5 173,-1124.5 173,-1494.5"/>
<polygon fill="#d3d3d3" stroke="none" points="9,-1457.5 9,-1494.5 173,-1494.5 173,-1457.5 9,-1457.5"/>
<polygon fill="none" stroke="black" points="9,-1457.5 9,-1494.5 173,-1494.5 173,-1457.5 9,-1457.5"/>
<text text-anchor="start" x="73" y="-1472.3" font-family="Helvetica Neue" font-size="14.00" fill="#333333">Cours</text>
<polygon fill="#ffffff" stroke="none" points="9,-1420.5 9,-1457.5 173,-1457.5 173,-1420.5 9,-1420.5"/>
<polygon fill="none" stroke="black" points="9,-1420.5 9,-1457.5 173,-1457.5 173,-1420.5 9,-1420.5"/>
<text text-anchor="start" x="20" y="-1435.3" font-family="Helvetica Neue" font-size="14.00" fill="#333333">id (bigint)</text>
<polygon fill="#ffffff" stroke="none" points="9,-1383.5 9,-1420.5 173,-1420.5 173,-1383.5 9,-1383.5"/>
<polygon fill="none" stroke="black" points="9,-1383.5 9,-1420.5 173,-1420.5 173,-1383.5 9,-1383.5"/>
<text text-anchor="start" x="20" y="-1398.3" font-family="Helvetica Neue" font-size="14.00" fill="#333333">categorie (string)</text>
<polygon fill="#ffffff" stroke="none" points="9,-1346.5 9,-1383.5 173,-1383.5 173,-1346.5 9,-1346.5"/>
<polygon fill="none" stroke="black" points="9,-1346.5 9,-1383.5 173,-1383.5 173,-1346.5 9,-1346.5"/>
<text text-anchor="start" x="20" y="-1361.3" font-family="Helvetica Neue" font-size="14.00" fill="#333333">matricule (bigint)</text>
<polygon fill="#ffffff" stroke="none" points="9,-1309.5 9,-1346.5 173,-1346.5 173,-1309.5 9,-1309.5"/>
<polygon fill="none" stroke="black" points="9,-1309.5 9,-1346.5 173,-1346.5 173,-1309.5 9,-1309.5"/>
<text text-anchor="start" x="20" y="-1324.3" font-family="Helvetica Neue" font-size="14.00" fill="#333333">option (bigint)</text>
<polygon fill="#ffffff" stroke="none" points="9,-1272.5 9,-1309.5 173,-1309.5 173,-1272.5 9,-1272.5"/>
<polygon fill="none" stroke="black" points="9,-1272.5 9,-1309.5 173,-1309.5 173,-1272.5 9,-1272.5"/>
<text text-anchor="start" x="20" y="-1287.3" font-family="Helvetica Neue" font-size="14.00" fill="#333333">titre (string)</text>
<polygon fill="#ffffff" stroke="none" points="9,-1235.5 9,-1272.5 173,-1272.5 173,-1235.5 9,-1235.5"/>
<polygon fill="none" stroke="black" points="9,-1235.5 9,-1272.5 173,-1272.5 173,-1235.5 9,-1235.5"/>
<text text-anchor="start" x="20" y="-1250.3" font-family="Helvetica Neue" font-size="14.00" fill="#333333">description (string)</text>
<polygon fill="#ffffff" stroke="none" points="9,-1198.5 9,-1235.5 173,-1235.5 173,-1198.5 9,-1198.5"/>
<polygon fill="none" stroke="black" points="9,-1198.5 9,-1235.5 173,-1235.5 173,-1198.5 9,-1198.5"/>
<text text-anchor="start" x="20" y="-1213.3" font-family="Helvetica Neue" font-size="14.00" fill="#333333">extension (string)</text>
<polygon fill="#ffffff" stroke="none" points="9,-1161.5 9,-1198.5 173,-1198.5 173,-1161.5 9,-1161.5"/>
<polygon fill="none" stroke="black" points="9,-1161.5 9,-1198.5 173,-1198.5 173,-1161.5 9,-1161.5"/>
<text text-anchor="start" x="20" y="-1176.3" font-family="Helvetica Neue" font-size="14.00" fill="#333333">created_at (datetime)</text>
<polygon fill="#ffffff" stroke="none" points="9,-1124.5 9,-1161.5 173,-1161.5 173,-1124.5 9,-1124.5"/>
<polygon fill="none" stroke="black" points="9,-1124.5 9,-1161.5 173,-1161.5 173,-1124.5 9,-1124.5"/>
<text text-anchor="start" x="20" y="-1139.3" font-family="Helvetica Neue" font-size="14.00" fill="#333333">updated_at (datetime)</text>
</g>
<!-- appmodelsprofile -->
<g id="node5" class="node">
<title>appmodelsprofile</title>
<polygon fill="none" stroke="black" points="173,-1900 9,-1900 9,-1567 173,-1567 173,-1900"/>
<polygon fill="#d3d3d3" stroke="none" points="9,-1862.5 9,-1899.5 173,-1899.5 173,-1862.5 9,-1862.5"/>
<polygon fill="none" stroke="black" points="9,-1862.5 9,-1899.5 173,-1899.5 173,-1862.5 9,-1862.5"/>
<text text-anchor="start" x="71.5" y="-1877.3" font-family="Helvetica Neue" font-size="14.00" fill="#333333">Profile</text>
<polygon fill="#ffffff" stroke="none" points="9,-1825.5 9,-1862.5 173,-1862.5 173,-1825.5 9,-1825.5"/>
<polygon fill="none" stroke="black" points="9,-1825.5 9,-1862.5 173,-1862.5 173,-1825.5 9,-1825.5"/>
<text text-anchor="start" x="20" y="-1840.3" font-family="Helvetica Neue" font-size="14.00" fill="#333333">id (bigint)</text>
<polygon fill="#ffffff" stroke="none" points="9,-1788.5 9,-1825.5 173,-1825.5 173,-1788.5 9,-1788.5"/>
<polygon fill="none" stroke="black" points="9,-1788.5 9,-1825.5 173,-1825.5 173,-1788.5 9,-1788.5"/>
<text text-anchor="start" x="20" y="-1803.3" font-family="Helvetica Neue" font-size="14.00" fill="#333333">status (bigint)</text>
<polygon fill="#ffffff" stroke="none" points="9,-1751.5 9,-1788.5 173,-1788.5 173,-1751.5 9,-1751.5"/>
<polygon fill="none" stroke="black" points="9,-1751.5 9,-1788.5 173,-1788.5 173,-1751.5 9,-1751.5"/>
<text text-anchor="start" x="20" y="-1766.3" font-family="Helvetica Neue" font-size="14.00" fill="#333333">nom (string)</text>
<polygon fill="#ffffff" stroke="none" points="9,-1714.5 9,-1751.5 173,-1751.5 173,-1714.5 9,-1714.5"/>
<polygon fill="none" stroke="black" points="9,-1714.5 9,-1751.5 173,-1751.5 173,-1714.5 9,-1714.5"/>
<text text-anchor="start" x="20" y="-1729.3" font-family="Helvetica Neue" font-size="14.00" fill="#333333">extension (string)</text>
<polygon fill="#ffffff" stroke="none" points="9,-1677.5 9,-1714.5 173,-1714.5 173,-1677.5 9,-1677.5"/>
<polygon fill="none" stroke="black" points="9,-1677.5 9,-1714.5 173,-1714.5 173,-1677.5 9,-1677.5"/>
<text text-anchor="start" x="20" y="-1692.3" font-family="Helvetica Neue" font-size="14.00" fill="#333333">taille (string)</text>
<polygon fill="#ffffff" stroke="none" points="9,-1640.5 9,-1677.5 173,-1677.5 173,-1640.5 9,-1640.5"/>
<polygon fill="none" stroke="black" points="9,-1640.5 9,-1677.5 173,-1677.5 173,-1640.5 9,-1640.5"/>
<text text-anchor="start" x="20" y="-1655.3" font-family="Helvetica Neue" font-size="14.00" fill="#333333">matricule (bigint)</text>
<polygon fill="#ffffff" stroke="none" points="9,-1603.5 9,-1640.5 173,-1640.5 173,-1603.5 9,-1603.5"/>
<polygon fill="none" stroke="black" points="9,-1603.5 9,-1640.5 173,-1640.5 173,-1603.5 9,-1603.5"/>
<text text-anchor="start" x="20" y="-1618.3" font-family="Helvetica Neue" font-size="14.00" fill="#333333">created_at (datetime)</text>
<polygon fill="#ffffff" stroke="none" points="9,-1566.5 9,-1603.5 173,-1603.5 173,-1566.5 9,-1566.5"/>
<polygon fill="none" stroke="black" points="9,-1566.5 9,-1603.5 173,-1603.5 173,-1566.5 9,-1566.5"/>
<text text-anchor="start" x="20" y="-1581.3" font-family="Helvetica Neue" font-size="14.00" fill="#333333">updated_at (datetime)</text>
</g>
<!-- appmodelsmatiere -->
<g id="node6" class="node">
<title>appmodelsmatiere</title>
<polygon fill="none" stroke="black" points="181,-2268.5 1,-2268.5 1,-1972.5 181,-1972.5 181,-2268.5"/>
<polygon fill="#d3d3d3" stroke="none" points="1,-2231.5 1,-2268.5 181,-2268.5 181,-2231.5 1,-2231.5"/>
<polygon fill="none" stroke="black" points="1,-2231.5 1,-2268.5 181,-2268.5 181,-2231.5 1,-2231.5"/>
<text text-anchor="start" x="63.5" y="-2246.3" font-family="Helvetica Neue" font-size="14.00" fill="#333333">_matiere</text>
<polygon fill="#ffffff" stroke="none" points="1,-2194.5 1,-2231.5 181,-2231.5 181,-2194.5 1,-2194.5"/>
<polygon fill="none" stroke="black" points="1,-2194.5 1,-2231.5 181,-2231.5 181,-2194.5 1,-2194.5"/>
<text text-anchor="start" x="12" y="-2209.3" font-family="Helvetica Neue" font-size="14.00" fill="#333333">id (bigint)</text>
<polygon fill="#ffffff" stroke="none" points="1,-2157.5 1,-2194.5 181,-2194.5 181,-2157.5 1,-2157.5"/>
<polygon fill="none" stroke="black" points="1,-2157.5 1,-2194.5 181,-2194.5 181,-2157.5 1,-2157.5"/>
<text text-anchor="start" x="12" y="-2172.3" font-family="Helvetica Neue" font-size="14.00" fill="#333333">volume_horaire (integer)</text>
<polygon fill="#ffffff" stroke="none" points="1,-2120.5 1,-2157.5 181,-2157.5 181,-2120.5 1,-2120.5"/>
<polygon fill="none" stroke="black" points="1,-2120.5 1,-2157.5 181,-2157.5 181,-2120.5 1,-2120.5"/>
<text text-anchor="start" x="12" y="-2135.3" font-family="Helvetica Neue" font-size="14.00" fill="#333333">nom (string)</text>
<polygon fill="#ffffff" stroke="none" points="1,-2083.5 1,-2120.5 181,-2120.5 181,-2083.5 1,-2083.5"/>
<polygon fill="none" stroke="black" points="1,-2083.5 1,-2120.5 181,-2120.5 181,-2083.5 1,-2083.5"/>
<text text-anchor="start" x="12" y="-2098.3" font-family="Helvetica Neue" font-size="14.00" fill="#333333">description (string)</text>
<polygon fill="#ffffff" stroke="none" points="1,-2046.5 1,-2083.5 181,-2083.5 181,-2046.5 1,-2046.5"/>
<polygon fill="none" stroke="black" points="1,-2046.5 1,-2083.5 181,-2083.5 181,-2046.5 1,-2046.5"/>
<text text-anchor="start" x="12" y="-2061.3" font-family="Helvetica Neue" font-size="14.00" fill="#333333">remember_token (string)</text>
<polygon fill="#ffffff" stroke="none" points="1,-2009.5 1,-2046.5 181,-2046.5 181,-2009.5 1,-2009.5"/>
<polygon fill="none" stroke="black" points="1,-2009.5 1,-2046.5 181,-2046.5 181,-2009.5 1,-2009.5"/>
<text text-anchor="start" x="12" y="-2024.3" font-family="Helvetica Neue" font-size="14.00" fill="#333333">created_at (datetime)</text>
<polygon fill="#ffffff" stroke="none" points="1,-1972.5 1,-2009.5 181,-2009.5 181,-1972.5 1,-1972.5"/>
<polygon fill="none" stroke="black" points="1,-1972.5 1,-2009.5 181,-2009.5 181,-1972.5 1,-1972.5"/>
<text text-anchor="start" x="12" y="-1987.3" font-family="Helvetica Neue" font-size="14.00" fill="#333333">updated_at (datetime)</text>
</g>
<!-- appmodelsmention -->
<g id="node7" class="node">
<title>appmodelsmention</title>
<polygon fill="none" stroke="black" points="173,-2526 9,-2526 9,-2341 173,-2341 173,-2526"/>
<polygon fill="#d3d3d3" stroke="none" points="9,-2488.5 9,-2525.5 173,-2525.5 173,-2488.5 9,-2488.5"/>
<polygon fill="none" stroke="black" points="9,-2488.5 9,-2525.5 173,-2525.5 173,-2488.5 9,-2488.5"/>
<text text-anchor="start" x="61.5" y="-2503.3" font-family="Helvetica Neue" font-size="14.00" fill="#333333">_mention</text>
<polygon fill="#ffffff" stroke="none" points="9,-2451.5 9,-2488.5 173,-2488.5 173,-2451.5 9,-2451.5"/>
<polygon fill="none" stroke="black" points="9,-2451.5 9,-2488.5 173,-2488.5 173,-2451.5 9,-2451.5"/>
<text text-anchor="start" x="20" y="-2466.3" font-family="Helvetica Neue" font-size="14.00" fill="#333333">id (bigint)</text>
<polygon fill="#ffffff" stroke="none" points="9,-2414.5 9,-2451.5 173,-2451.5 173,-2414.5 9,-2414.5"/>
<polygon fill="none" stroke="black" points="9,-2414.5 9,-2451.5 173,-2451.5 173,-2414.5 9,-2414.5"/>
<text text-anchor="start" x="20" y="-2429.3" font-family="Helvetica Neue" font-size="14.00" fill="#333333">nom (string)</text>
<polygon fill="#ffffff" stroke="none" points="9,-2377.5 9,-2414.5 173,-2414.5 173,-2377.5 9,-2377.5"/>
<polygon fill="none" stroke="black" points="9,-2377.5 9,-2414.5 173,-2414.5 173,-2377.5 9,-2377.5"/>
<text text-anchor="start" x="20" y="-2392.3" font-family="Helvetica Neue" font-size="14.00" fill="#333333">created_at (datetime)</text>
<polygon fill="#ffffff" stroke="none" points="9,-2340.5 9,-2377.5 173,-2377.5 173,-2340.5 9,-2340.5"/>
<polygon fill="none" stroke="black" points="9,-2340.5 9,-2377.5 173,-2377.5 173,-2340.5 9,-2340.5"/>
<text text-anchor="start" x="20" y="-2355.3" font-family="Helvetica Neue" font-size="14.00" fill="#333333">updated_at (datetime)</text>
</g>
<!-- appmodelsoption -->
<g id="node8" class="node">
<title>appmodelsoption</title>
<polygon fill="none" stroke="black" points="173,-2857 9,-2857 9,-2598 173,-2598 173,-2857"/>
<polygon fill="#d3d3d3" stroke="none" points="9,-2819.5 9,-2856.5 173,-2856.5 173,-2819.5 9,-2819.5"/>
<polygon fill="none" stroke="black" points="9,-2819.5 9,-2856.5 173,-2856.5 173,-2819.5 9,-2819.5"/>
<text text-anchor="start" x="67.5" y="-2834.3" font-family="Helvetica Neue" font-size="14.00" fill="#333333">_option</text>
<polygon fill="#ffffff" stroke="none" points="9,-2782.5 9,-2819.5 173,-2819.5 173,-2782.5 9,-2782.5"/>
<polygon fill="none" stroke="black" points="9,-2782.5 9,-2819.5 173,-2819.5 173,-2782.5 9,-2782.5"/>
<text text-anchor="start" x="20" y="-2797.3" font-family="Helvetica Neue" font-size="14.00" fill="#333333">id (bigint)</text>
<polygon fill="#ffffff" stroke="none" points="9,-2745.5 9,-2782.5 173,-2782.5 173,-2745.5 9,-2745.5"/>
<polygon fill="none" stroke="black" points="9,-2745.5 9,-2782.5 173,-2782.5 173,-2745.5 9,-2745.5"/>
<text text-anchor="start" x="20" y="-2760.3" font-family="Helvetica Neue" font-size="14.00" fill="#333333">nom (string)</text>
<polygon fill="#ffffff" stroke="none" points="9,-2708.5 9,-2745.5 173,-2745.5 173,-2708.5 9,-2708.5"/>
<polygon fill="none" stroke="black" points="9,-2708.5 9,-2745.5 173,-2745.5 173,-2708.5 9,-2708.5"/>
<text text-anchor="start" x="20" y="-2723.3" font-family="Helvetica Neue" font-size="14.00" fill="#333333">niveau (string)</text>
<polygon fill="#ffffff" stroke="none" points="9,-2671.5 9,-2708.5 173,-2708.5 173,-2671.5 9,-2671.5"/>
<polygon fill="none" stroke="black" points="9,-2671.5 9,-2708.5 173,-2708.5 173,-2671.5 9,-2671.5"/>
<text text-anchor="start" x="20" y="-2686.3" font-family="Helvetica Neue" font-size="14.00" fill="#333333">_id_mention (bigint)</text>
<polygon fill="#ffffff" stroke="none" points="9,-2634.5 9,-2671.5 173,-2671.5 173,-2634.5 9,-2634.5"/>
<polygon fill="none" stroke="black" points="9,-2634.5 9,-2671.5 173,-2671.5 173,-2634.5 9,-2634.5"/>
<text text-anchor="start" x="20" y="-2649.3" font-family="Helvetica Neue" font-size="14.00" fill="#333333">created_at (datetime)</text>
<polygon fill="#ffffff" stroke="none" points="9,-2597.5 9,-2634.5 173,-2634.5 173,-2597.5 9,-2597.5"/>
<polygon fill="none" stroke="black" points="9,-2597.5 9,-2634.5 173,-2634.5 173,-2597.5 9,-2597.5"/>
<text text-anchor="start" x="20" y="-2612.3" font-family="Helvetica Neue" font-size="14.00" fill="#333333">updated_at (datetime)</text>
</g>
<!-- appmodelspointage -->
<g id="node9" class="node">
<title>appmodelspointage</title>
<polygon fill="none" stroke="black" points="181,-3410 1,-3410 1,-2929 181,-2929 181,-3410"/>
<polygon fill="#d3d3d3" stroke="none" points="1,-3372.5 1,-3409.5 181,-3409.5 181,-3372.5 1,-3372.5"/>
<polygon fill="none" stroke="black" points="1,-3372.5 1,-3409.5 181,-3409.5 181,-3372.5 1,-3372.5"/>
<text text-anchor="start" x="59.5" y="-3387.3" font-family="Helvetica Neue" font-size="14.00" fill="#333333">_pointage</text>
<polygon fill="#ffffff" stroke="none" points="1,-3335.5 1,-3372.5 181,-3372.5 181,-3335.5 1,-3335.5"/>
<polygon fill="none" stroke="black" points="1,-3335.5 1,-3372.5 181,-3372.5 181,-3335.5 1,-3335.5"/>
<text text-anchor="start" x="12" y="-3350.3" font-family="Helvetica Neue" font-size="14.00" fill="#333333">id (bigint)</text>
<polygon fill="#ffffff" stroke="none" points="1,-3298.5 1,-3335.5 181,-3335.5 181,-3298.5 1,-3298.5"/>
<polygon fill="none" stroke="black" points="1,-3298.5 1,-3335.5 181,-3335.5 181,-3298.5 1,-3298.5"/>
<text text-anchor="start" x="12" y="-3313.3" font-family="Helvetica Neue" font-size="14.00" fill="#333333">plage_horaire (integer)</text>
<polygon fill="#ffffff" stroke="none" points="1,-3261.5 1,-3298.5 181,-3298.5 181,-3261.5 1,-3261.5"/>
<polygon fill="none" stroke="black" points="1,-3261.5 1,-3298.5 181,-3298.5 181,-3261.5 1,-3261.5"/>
<text text-anchor="start" x="12" y="-3276.3" font-family="Helvetica Neue" font-size="14.00" fill="#333333">heure_effectue (integer)</text>
<polygon fill="#ffffff" stroke="none" points="1,-3224.5 1,-3261.5 181,-3261.5 181,-3224.5 1,-3224.5"/>
<polygon fill="none" stroke="black" points="1,-3224.5 1,-3261.5 181,-3261.5 181,-3224.5 1,-3224.5"/>
<text text-anchor="start" x="12" y="-3239.3" font-family="Helvetica Neue" font-size="14.00" fill="#333333">heure_restante (integer)</text>
<polygon fill="#ffffff" stroke="none" points="1,-3187.5 1,-3224.5 181,-3224.5 181,-3187.5 1,-3187.5"/>
<polygon fill="none" stroke="black" points="1,-3187.5 1,-3224.5 181,-3224.5 181,-3187.5 1,-3187.5"/>
<text text-anchor="start" x="12" y="-3202.3" font-family="Helvetica Neue" font-size="14.00" fill="#333333">observation (string)</text>
<polygon fill="#ffffff" stroke="none" points="1,-3150.5 1,-3187.5 181,-3187.5 181,-3150.5 1,-3150.5"/>
<polygon fill="none" stroke="black" points="1,-3150.5 1,-3187.5 181,-3187.5 181,-3150.5 1,-3150.5"/>
<text text-anchor="start" x="12" y="-3165.3" font-family="Helvetica Neue" font-size="14.00" fill="#333333">status (integer)</text>
<polygon fill="#ffffff" stroke="none" points="1,-3113.5 1,-3150.5 181,-3150.5 181,-3113.5 1,-3113.5"/>
<polygon fill="none" stroke="black" points="1,-3113.5 1,-3150.5 181,-3150.5 181,-3113.5 1,-3113.5"/>
<text text-anchor="start" x="12" y="-3128.3" font-family="Helvetica Neue" font-size="14.00" fill="#333333">_matricule (bigint)</text>
<polygon fill="#ffffff" stroke="none" points="1,-3076.5 1,-3113.5 181,-3113.5 181,-3076.5 1,-3076.5"/>
<polygon fill="none" stroke="black" points="1,-3076.5 1,-3113.5 181,-3113.5 181,-3076.5 1,-3076.5"/>
<text text-anchor="start" x="12" y="-3091.3" font-family="Helvetica Neue" font-size="14.00" fill="#333333">_id_option (bigint)</text>
<polygon fill="#ffffff" stroke="none" points="1,-3039.5 1,-3076.5 181,-3076.5 181,-3039.5 1,-3039.5"/>
<polygon fill="none" stroke="black" points="1,-3039.5 1,-3076.5 181,-3076.5 181,-3039.5 1,-3039.5"/>
<text text-anchor="start" x="12" y="-3054.3" font-family="Helvetica Neue" font-size="14.00" fill="#333333">_id_matiere (bigint)</text>
<polygon fill="#ffffff" stroke="none" points="1,-3002.5 1,-3039.5 181,-3039.5 181,-3002.5 1,-3002.5"/>
<polygon fill="none" stroke="black" points="1,-3002.5 1,-3039.5 181,-3039.5 181,-3002.5 1,-3002.5"/>
<text text-anchor="start" x="12" y="-3017.3" font-family="Helvetica Neue" font-size="14.00" fill="#333333">remember_token (string)</text>
<polygon fill="#ffffff" stroke="none" points="1,-2965.5 1,-3002.5 181,-3002.5 181,-2965.5 1,-2965.5"/>
<polygon fill="none" stroke="black" points="1,-2965.5 1,-3002.5 181,-3002.5 181,-2965.5 1,-2965.5"/>
<text text-anchor="start" x="12" y="-2980.3" font-family="Helvetica Neue" font-size="14.00" fill="#333333">created_at (datetime)</text>
<polygon fill="#ffffff" stroke="none" points="1,-2928.5 1,-2965.5 181,-2965.5 181,-2928.5 1,-2928.5"/>
<polygon fill="none" stroke="black" points="1,-2928.5 1,-2965.5 181,-2965.5 181,-2928.5 1,-2928.5"/>
<text text-anchor="start" x="12" y="-2943.3" font-family="Helvetica Neue" font-size="14.00" fill="#333333">updated_at (datetime)</text>
</g>
<!-- appmodelsnomination -->
<g id="node10" class="node">
<title>appmodelsnomination</title>
<polygon fill="none" stroke="black" points="173,-3704.5 9,-3704.5 9,-3482.5 173,-3482.5 173,-3704.5"/>
<polygon fill="#d3d3d3" stroke="none" points="9,-3667.5 9,-3704.5 173,-3704.5 173,-3667.5 9,-3667.5"/>
<polygon fill="none" stroke="black" points="9,-3667.5 9,-3704.5 173,-3704.5 173,-3667.5 9,-3667.5"/>
<text text-anchor="start" x="56" y="-3682.3" font-family="Helvetica Neue" font-size="14.00" fill="#333333">nomination</text>
<polygon fill="#ffffff" stroke="none" points="9,-3630.5 9,-3667.5 173,-3667.5 173,-3630.5 9,-3630.5"/>
<polygon fill="none" stroke="black" points="9,-3630.5 9,-3667.5 173,-3667.5 173,-3630.5 9,-3630.5"/>
<text text-anchor="start" x="20" y="-3645.3" font-family="Helvetica Neue" font-size="14.00" fill="#333333">id (bigint)</text>
<polygon fill="#ffffff" stroke="none" points="9,-3593.5 9,-3630.5 173,-3630.5 173,-3593.5 9,-3593.5"/>
<polygon fill="none" stroke="black" points="9,-3593.5 9,-3630.5 173,-3630.5 173,-3593.5 9,-3593.5"/>
<text text-anchor="start" x="20" y="-3608.3" font-family="Helvetica Neue" font-size="14.00" fill="#333333">matricule (integer)</text>
<polygon fill="#ffffff" stroke="none" points="9,-3556.5 9,-3593.5 173,-3593.5 173,-3556.5 9,-3556.5"/>
<polygon fill="none" stroke="black" points="9,-3556.5 9,-3593.5 173,-3593.5 173,-3556.5 9,-3556.5"/>
<text text-anchor="start" x="20" y="-3571.3" font-family="Helvetica Neue" font-size="14.00" fill="#333333">id_option (integer)</text>
<polygon fill="#ffffff" stroke="none" points="9,-3519.5 9,-3556.5 173,-3556.5 173,-3519.5 9,-3519.5"/>
<polygon fill="none" stroke="black" points="9,-3519.5 9,-3556.5 173,-3556.5 173,-3519.5 9,-3519.5"/>
<text text-anchor="start" x="20" y="-3534.3" font-family="Helvetica Neue" font-size="14.00" fill="#333333">created_at (datetime)</text>
<polygon fill="#ffffff" stroke="none" points="9,-3482.5 9,-3519.5 173,-3519.5 173,-3482.5 9,-3482.5"/>
<polygon fill="none" stroke="black" points="9,-3482.5 9,-3519.5 173,-3519.5 173,-3482.5 9,-3482.5"/>
<text text-anchor="start" x="20" y="-3497.3" font-family="Helvetica Neue" font-size="14.00" fill="#333333">updated_at (datetime)</text>
</g>
</g>
</svg>
